<svg xmlns="http://www.w3.org/2000/svg" width="1024" height="1024" viewBox="0 0 1024 1024" version="1.1">
	<path d="M 496.500 141.619 C 456.325 147.655, 420.024 173.647, 401.206 209.853 C 392.041 227.485, 387.751 245.566, 387.766 266.500 C 387.776 281.787, 388.950 289.879, 393.131 303.500 C 398.330 320.440, 407.178 336.249, 419.361 350.369 C 429.910 362.595, 449.959 377.249, 465.042 383.757 C 470.571 386.143, 471 386.561, 471 389.580 C 471 391.370, 469.212 410.758, 467.027 432.667 C 464.842 454.575, 461.699 486.225, 460.043 503 C 458.387 519.775, 454.775 556.225, 452.017 584 C 449.258 611.775, 447.001 636.155, 447.001 638.177 C 447 640.960, 447.641 642.359, 449.635 643.927 C 452.234 645.972, 453.086 646, 512.079 646 L 571.888 646 574.675 643.603 L 577.461 641.207 572.165 584.853 C 569.253 553.859, 563.725 496.611, 559.882 457.636 C 556.038 418.661, 553.030 386.651, 553.197 386.503 C 553.364 386.354, 557.325 384.320, 562 381.983 C 601.466 362.250, 625.667 331.242, 634.668 288.875 C 637.111 277.377, 637.062 253.732, 634.571 242 C 624.244 193.356, 589.050 156.661, 540.500 143.918 C 534.314 142.294, 528.758 141.744, 516 141.493 C 506.925 141.314, 498.150 141.371, 496.500 141.619 M 499.906 159.072 C 462.625 163.028, 428.057 188.781, 412.970 223.839 C 406.307 239.322, 404.573 248.213, 404.651 266.500 C 404.710 280.310, 405.067 283.811, 407.257 292.074 C 410.854 305.640, 415.418 315.999, 422.397 326.432 C 434.558 344.614, 451.387 358.398, 473.771 368.512 C 482.134 372.290, 485.584 374.355, 485.793 375.704 C 485.954 376.746, 484.504 394.451, 482.569 415.049 C 477.446 469.603, 463 628.597, 463 630.432 C 463 631.835, 468.170 632, 511.969 632 C 550.717 632, 560.843 631.739, 560.486 630.750 C 560.238 630.063, 558.019 607.450, 555.555 580.500 C 553.091 553.550, 547.891 496.657, 543.999 454.070 C 540.107 411.484, 537.052 376.035, 537.211 375.294 C 537.370 374.553, 542.529 371.762, 548.675 369.092 C 572.823 358.599, 588.461 345.937, 602.131 325.807 C 611.206 312.444, 617.034 295.633, 618.978 277.217 C 625.149 218.762, 583.072 165.566, 525.500 159.037 C 515.431 157.895, 510.937 157.901, 499.906 159.072 M 395 747.407 L 395 784.815 400.501 785.157 L 406.003 785.500 406.001 773.750 L 406 762 418.874 762 C 437.804 762, 445.597 758.610, 450.715 748.151 C 456.577 736.168, 453.031 721.042, 442.894 714.790 C 437.089 711.210, 428.944 710.017, 410.250 710.008 L 395 710 395 747.407 M 485 747.500 L 485 785 503.750 784.989 C 524.529 784.977, 528.937 784.174, 537.147 778.906 C 547.581 772.210, 552.507 760.557, 551.822 744.195 C 551.353 733.001, 548.725 725.983, 542.713 719.874 C 535.073 712.111, 526.283 710.019, 501.250 710.008 L 485 710 485 747.500 M 583.774 747.500 L 583.500 785.001 607.750 785 C 621.087 785, 632.337 785, 632.750 785 C 633.163 785, 633.500 782.638, 633.500 779.750 L 633.500 774.500 614.249 774.500 L 594.999 774.500 594.999 742.250 L 595 710 589.524 710 L 584.047 710 583.774 747.500 M 406 737.121 L 406 753.241 418.296 752.832 C 428.197 752.502, 431.244 752.041, 433.941 750.461 C 439.002 747.498, 441.269 743.800, 441.777 737.679 C 442.357 730.686, 440.219 726.053, 435.078 723.164 C 431.696 721.263, 429.693 721, 418.614 721 L 406 721 406 737.121 M 495 747.592 L 495 774.183 509.750 773.825 C 521.688 773.536, 525.149 773.117, 527.901 771.630 C 536.109 767.195, 540 759.173, 540 746.685 C 540 737.490, 538.326 732.326, 533.917 727.917 C 528.468 722.468, 522.930 721, 507.822 721 L 495 721 495 747.592 M 584.160 826.750 C 582.086 830.737, 560 884.008, 560 885.023 C 560 885.661, 561.330 885.994, 563.150 885.813 C 566.095 885.520, 566.560 884.896, 570.282 876.222 L 574.264 866.944 587.372 867.222 L 600.480 867.500 604.157 876.500 C 607.791 885.394, 607.878 885.504, 611.552 885.818 C 614.733 886.091, 615.199 885.875, 614.782 884.318 C 614.514 883.318, 608.784 869.563, 602.050 853.750 C 590.924 827.626, 589.589 825, 587.438 825 C 586.136 825, 584.661 825.788, 584.160 826.750 M 714.759 826.423 C 709.393 828.338, 706.245 830.620, 704.641 833.759 C 701.145 840.601, 701.879 847.177, 706.700 852.209 C 708.704 854.301, 712.464 856.012, 720.703 858.585 C 733.326 862.525, 738 865.597, 738 869.954 C 738 875.939, 731.744 879.989, 722.500 879.989 C 716.923 879.989, 712.207 878.517, 706.804 875.091 L 702.178 872.157 700.906 875.227 C 699.711 878.112, 699.811 878.438, 702.567 880.645 C 709.500 886.195, 724.193 888.107, 733.270 884.641 C 745.546 879.953, 748.737 865.875, 739.289 858.087 C 736.905 856.121, 731.702 853.832, 724.379 851.526 C 711.899 847.595, 708.338 844.846, 709.505 840.043 C 710.639 835.373, 714.329 832.720, 720.389 832.218 C 727.630 831.617, 732.001 832.511, 736.392 835.491 L 739.985 837.930 741.564 834.877 C 743.032 832.037, 743.016 831.728, 741.321 830.434 C 735.048 825.645, 722.323 823.724, 714.759 826.423 M 280 855.977 L 280 886.127 283.250 885.813 L 286.500 885.500 286.385 875.250 L 286.269 865 294.943 865 L 303.616 865 311 875.500 C 318.235 885.788, 318.463 886, 322.299 886 C 327.191 886, 327.155 885.895, 317.981 873.474 C 314.058 868.163, 310.995 863.733, 311.175 863.629 C 311.354 863.526, 313.143 862.695, 315.151 861.784 C 317.158 860.873, 320.083 858.446, 321.651 856.391 C 324.210 853.036, 324.500 851.876, 324.500 845 C 324.500 838.155, 324.203 836.955, 321.698 833.671 C 316.791 827.238, 314.486 826.558, 296.250 826.172 L 280 825.828 280 855.977 M 354.235 855.730 L 354.500 885.500 375.250 885.770 L 396 886.041 396 882.520 L 396 879 378.500 879 L 361 879 361 869 L 361 859 377 859 L 393 859 393 856 L 393 853 377 853 L 361 853 361 843.023 L 361 833.046 378.750 832.773 L 396.500 832.500 396.494 829.500 L 396.488 826.500 375.229 826.230 L 353.970 825.960 354.235 855.730 M 425 855 C 425 870.950, 424.887 884.337, 424.750 884.750 C 424.613 885.163, 425.962 885.641, 427.750 885.813 L 431 886.127 431 862.501 L 431 838.876 449.750 861.593 C 460.063 874.088, 469.226 884.762, 470.114 885.314 C 471.002 885.867, 472.406 886.058, 473.234 885.740 C 474.534 885.242, 474.714 881.148, 474.552 855.831 L 474.365 826.500 471.182 826.187 L 468 825.873 468 849.507 L 468 873.140 453.829 855.820 C 433.507 830.982, 429.004 826, 426.878 826 C 425.084 826, 425 827.295, 425 855 M 498 829.500 L 498 833 508.500 833 L 519 833 519 859.563 L 519 886.127 522.250 885.813 L 525.500 885.500 525.767 859.250 L 526.033 833 536.517 833 L 547 833 547 829.500 L 547 826 522.500 826 L 498 826 498 829.500 M 640 856.022 L 640 886.043 659.250 885.772 L 678.500 885.500 678.500 882.500 L 678.500 879.500 662.750 879.225 L 647 878.949 647 852.475 L 647 826 643.500 826 L 640 826 640 856.022 M 286.500 845.497 L 286.500 857.996 296 857.921 C 312.342 857.792, 317.571 854.627, 317.427 844.950 C 317.294 835.904, 312.278 833, 296.782 832.999 L 286.500 832.999 286.500 845.497 M 584.031 842.688 C 582.268 846.985, 579.764 852.862, 578.468 855.750 L 576.111 861 587.031 861 L 597.950 861 597.048 858.750 C 596.552 857.513, 594.142 851.635, 591.692 845.688 L 587.238 834.876 584.031 842.688" stroke="none" fill="#0a0a0a" fill-rule="evenodd"/>
</svg>