<svg xmlns="http://www.w3.org/2000/svg" width="1024" height="1024" viewBox="0 0 1024 1024" version="1.1">
	<path d="M 497 141.582 C 485.364 143.637, 481.867 144.455, 475.163 146.689 C 431.115 161.368, 397.506 199.654, 389.300 244.500 C 387.150 256.250, 387.176 277.646, 389.354 289.043 C 394.247 314.642, 406.331 337.378, 424.969 356.049 C 435.505 366.604, 451.020 377.518, 463.405 383.086 C 470.344 386.206, 470.998 386.751, 470.999 389.415 C 471 391.019, 468.517 417.344, 465.482 447.915 C 462.447 478.487, 458.384 519.475, 456.455 539 C 454.525 558.525, 451.608 587.885, 449.973 604.244 C 446.341 640.579, 446.334 641.025, 449.314 643.826 L 451.629 646 511.759 646 L 571.888 646 574.643 643.630 L 577.398 641.261 576.217 627.880 C 573.971 602.444, 565.059 509.274, 559.021 448.103 C 555.687 414.335, 553.081 386.600, 553.230 386.470 C 553.378 386.339, 557.325 384.324, 562 381.990 C 601.082 362.486, 626.294 330.416, 634.441 289.847 C 647.342 225.597, 606.499 161.295, 542 144.312 C 534.128 142.239, 529.672 141.753, 516 141.475 C 506.925 141.291, 498.375 141.339, 497 141.582 M 500.500 159.034 C 490.408 160.008, 477.063 163.591, 467.668 167.851 C 453.016 174.495, 435.341 189.050, 425.021 202.972 C 398.437 238.832, 397.316 288.935, 422.263 326.232 C 434.437 344.433, 451.754 358.680, 473.338 368.252 C 479.477 370.974, 484.908 373.587, 485.407 374.058 C 485.949 374.569, 485.836 380.064, 485.128 387.707 C 479.842 444.714, 463 629.659, 463 630.693 C 463 631.751, 472.248 632, 511.500 632 C 544.548 632, 560 631.667, 560 630.955 C 560 629.885, 542.735 440.355, 538.975 400.156 C 537.826 387.866, 537.024 376.931, 537.193 375.856 C 537.420 374.409, 540.665 372.521, 549.667 368.598 C 572.115 358.815, 589.246 344.906, 601.603 326.432 C 625.570 290.602, 625.518 243.255, 601.472 205.794 C 595.002 195.715, 578.489 179.744, 568.193 173.608 C 548.283 161.742, 524.814 156.690, 500.500 159.034 M 395.002 747.750 L 395.003 785.500 400.502 785.692 L 406 785.885 406 773.942 L 406 762 418.874 762 C 432.447 762, 436.950 761.055, 443.890 756.751 C 445.876 755.520, 447.785 754.604, 448.132 754.717 C 448.480 754.830, 448.729 754.377, 448.685 753.711 C 448.642 753.045, 449.698 750.250, 451.031 747.500 C 456.584 736.052, 452.831 720.843, 442.951 714.761 C 436.952 711.068, 429.805 710.013, 410.750 710.006 L 395 710 395.002 747.750 M 484.774 747.471 C 484.623 768.205, 484.574 785.243, 484.663 785.334 C 484.753 785.425, 494.203 785.275, 505.663 785 C 525.629 784.521, 526.738 784.388, 532.196 781.830 C 539.867 778.234, 546.172 771.735, 549.097 764.407 C 551.108 759.368, 551.458 756.737, 551.477 746.500 C 551.498 735.580, 551.261 733.991, 548.849 728.845 C 545.410 721.511, 539.285 715.646, 532.174 712.879 C 527.153 710.926, 524.117 710.620, 505.774 710.223 L 485.048 709.774 484.774 747.471 M 583.748 718.750 C 583.445 723.563, 583.265 740.533, 583.349 756.463 L 583.500 785.426 608.500 785.463 L 633.500 785.500 633.500 780 L 633.500 774.500 614.250 774.228 L 595 773.957 595 741.978 L 595 710 589.650 710 L 584.299 710 583.748 718.750 M 406 737.105 L 406 753.211 417.750 752.838 C 436.238 752.252, 441.500 748.524, 441.500 736.007 C 441.500 730.094, 441.159 728.792, 439 726.452 C 434.845 721.949, 431.195 721, 418.032 721 L 406 721 406 737.105 M 495.500 747.501 L 495.500 774 508.072 774 C 523.721 774, 528.403 772.621, 533.880 766.399 C 538.457 761.199, 540.004 755.986, 539.990 745.807 C 539.983 740.229, 539.419 737.293, 537.606 733.401 C 533.210 723.959, 526.046 721, 507.591 721.001 L 495.500 721.001 495.500 747.501 M 584.151 826.750 C 582.070 830.709, 560 883.923, 560 884.980 C 560 885.666, 561.266 886.001, 563.150 885.813 C 566.087 885.521, 566.562 884.890, 570.164 876.500 L 574.028 867.500 587.198 867.515 L 600.369 867.531 604.109 876.515 C 607.758 885.282, 607.936 885.508, 611.424 885.810 C 613.391 885.981, 615 885.668, 615 885.114 C 615 884.249, 594.586 835.538, 590.959 827.750 C 589.474 824.561, 585.600 823.992, 584.151 826.750 M 715.037 826.115 C 703.048 829.760, 698.488 842.791, 706.148 851.516 C 709.168 854.955, 712.174 856.322, 724.683 859.940 C 736.010 863.215, 740.180 868.059, 736.919 874.151 C 735.445 876.905, 728.382 879.951, 723.409 879.978 C 718.049 880.007, 710.745 877.759, 706.003 874.621 L 702.200 872.104 700.917 875.200 C 699.709 878.118, 699.804 878.432, 702.567 880.645 C 709.923 886.533, 726.518 888.379, 734.624 884.209 C 742.789 880.010, 746.416 872.669, 744.117 864.996 C 742.320 858.998, 737.456 855.535, 725.772 851.934 C 714.962 848.603, 710.531 846.198, 709.804 843.268 C 708.986 839.979, 710.569 836.533, 713.940 834.261 C 719.713 830.371, 732.607 831.619, 738.112 836.602 C 739.637 837.982, 739.950 837.909, 741.399 835.841 C 743.830 832.369, 743.432 831.553, 737.817 828.497 C 731.999 825.330, 721.298 824.211, 715.037 826.115 M 280 856.063 L 280 886.127 283.250 885.813 L 286.500 885.500 286.500 875.249 L 286.500 864.997 295 865.008 L 303.500 865.019 310.979 875.509 C 318.211 885.653, 318.583 886, 322.229 886 C 324.303 886, 326 885.620, 326 885.155 C 326 884.690, 322.625 879.730, 318.500 874.131 C 314.375 868.532, 311 863.738, 311 863.476 C 311 863.214, 311.797 863, 312.772 863 C 315.425 863, 322.058 857.106, 323.624 853.357 C 325.385 849.143, 325.391 840.871, 323.636 836.671 C 321.897 832.509, 316.986 828.368, 312.219 827.044 C 310.174 826.476, 302.087 826.009, 294.250 826.006 L 280 826 280 856.063 M 354 855.980 L 354 886 375 886 L 396 886 396 882.500 L 396 879 378.500 879 L 361 879 361 869 L 361 859 377 859 L 393 859 393 856 L 393 853 377 853 L 361 853 361 843.023 L 361 833.046 378.750 832.773 L 396.500 832.500 396.500 829.500 L 396.500 826.500 375.250 826.230 L 354 825.960 354 855.980 M 424.809 826.750 C 424.639 827.163, 424.500 840.550, 424.500 856.500 L 424.500 885.500 427.750 885.813 L 431 886.127 431 862.517 L 431 838.907 445.250 856.264 C 453.087 865.811, 461.750 876.395, 464.500 879.784 C 468.455 884.657, 470.023 885.899, 472 885.723 L 474.500 885.500 474.500 856 L 474.500 826.500 471.250 826.187 L 468 825.873 468 849.494 L 468 873.116 451.381 852.808 C 442.240 841.638, 433.377 831.038, 431.685 829.250 C 428.815 826.219, 425.521 825.021, 424.809 826.750 M 498 829.500 L 498 833 508.500 833 L 519 833 519 859.500 L 519 886 522.500 886 L 526 886 526 859.500 L 526 833 536.500 833 L 547 833 547 829.500 L 547 826 522.500 826 L 498 826 498 829.500 M 640 856.022 L 640 886.043 659.250 885.772 L 678.500 885.500 678.813 882.250 L 679.127 879 663.063 879 L 647 879 647 852.500 L 647 826 643.500 826 L 640 826 640 856.022 M 286.809 845.529 L 287.117 858.217 297.809 857.849 C 306.288 857.558, 309.224 857.060, 312 855.446 C 319.092 851.321, 319.457 840.674, 312.680 835.607 C 310.265 833.802, 308.187 833.453, 298.181 833.170 L 286.500 832.840 286.809 845.529 M 582.535 846.605 C 579.857 853.147, 577.236 859.063, 576.711 859.750 C 575.960 860.732, 578.125 861, 586.820 861 L 597.886 861 593.067 849.250 C 590.417 842.788, 588.059 836.872, 587.826 836.105 C 587.594 835.338, 585.213 840.063, 582.535 846.605" stroke="none" fill="#ed7707" fill-rule="evenodd"/>
</svg>